<svg preserveAspectRatio="none" width="100%" height="100%" overflow="visible" style="display: block;" viewBox="0 0 33.2649 33.2649" fill="none" xmlns="http://www.w3.org/2000/svg">
<path id="Vector" d="M23.2854 13.755L14.9692 8.94825C14.4638 8.65643 13.8904 8.50273 13.3068 8.50258C12.7232 8.50243 12.1498 8.65584 11.6442 8.94739C11.1386 9.23895 10.7186 9.6584 10.4264 10.1636C10.1342 10.6688 9.98007 11.242 9.97947 11.8257V21.4392C9.98007 22.0225 10.1341 22.5955 10.426 23.1005C10.7179 23.6056 11.1375 24.0249 11.6427 24.3166C12.1484 24.6086 12.722 24.7623 13.306 24.7623C13.8899 24.7623 14.4635 24.6086 14.9692 24.3166L23.2854 19.5098C23.7895 19.2174 24.2079 18.7977 24.4988 18.2927C24.7897 17.7877 24.9428 17.2152 24.9428 16.6324C24.9428 16.0497 24.7897 15.4771 24.4988 14.9721C24.2079 14.4672 23.7895 14.0474 23.2854 13.755V13.755ZM21.6222 16.6324L13.306 21.4392V11.8257L21.6222 16.6324ZM16.6324 0C13.3429 0 10.1271 0.975475 7.39196 2.80307C4.65677 4.63067 2.52495 7.2283 1.26608 10.2675C0.00720656 13.3067 -0.322171 16.6509 0.319595 19.8773C0.961361 23.1036 2.54545 26.0672 4.87153 28.3933C7.19762 30.7194 10.1612 32.3035 13.3876 32.9453C16.614 33.587 19.9582 33.2577 22.9974 31.9988C26.0366 30.7399 28.6342 28.6081 30.4618 25.8729C32.2894 23.1377 33.2649 19.922 33.2649 16.6324C33.2649 14.4482 32.8347 12.2854 31.9988 10.2675C31.1629 8.24954 29.9378 6.41599 28.3933 4.87153C26.8489 3.32706 25.0153 2.10193 22.9974 1.26607C20.9795 0.430211 18.8166 0 16.6324 0V0ZM16.6324 29.9384C14.0008 29.9384 11.4282 29.158 9.24005 27.6959C7.0519 26.2338 5.34645 24.1557 4.33935 21.7244C3.33225 19.2931 3.06875 16.6177 3.58216 14.0366C4.09558 11.4555 5.36285 9.08458 7.22372 7.22371C9.08459 5.36284 11.4555 4.09557 14.0366 3.58216C16.6177 3.06874 19.2931 3.33225 21.7244 4.33934C24.1558 5.34644 26.2339 7.05189 27.6959 9.24004C29.158 11.4282 29.9384 14.0008 29.9384 16.6324C29.9384 20.1614 28.5365 23.5458 26.0412 26.0412C23.5458 28.5365 20.1614 29.9384 16.6324 29.9384V29.9384Z" fill="var(--fill-0, white)"/>
</svg>
